<?xml version="1.0" encoding="UTF-8" standalone="no"?>
<svg width="512px" height="512px" viewBox="0 0 512 512" version="1.1" xmlns="http://www.w3.org/2000/svg" xmlns:xlink="http://www.w3.org/1999/xlink" xmlns:sketch="http://www.bohemiancoding.com/sketch/ns">
    <!-- Generator: Sketch 3.4 (15575) - http://www.bohemiancoding.com/sketch -->
    <title>analytics</title>
    <desc>Created with Sketch.</desc>
    <defs></defs>
    <g id="Icons" stroke="none" stroke-width="1" fill="none" fill-rule="evenodd" sketch:type="MSPage">
        <g id="analytics" sketch:type="MSArtboardGroup" fill="#FFFFFF">
            <path d="M476.070175,146.092023 L476.070175,37.9286234 C476.070175,36.8316824 475.175283,35.9298246 474.071377,35.9298246 L37.9286234,35.9298246 C36.8316824,35.9298246 35.9298246,36.8247173 35.9298246,37.9286234 L35.9298246,374.890434 L176.654971,215.578947 L335.345029,305.403509 L476.070175,146.092023 Z M0,19.9923669 C0,8.95088756 8.95435956,0 19.9923669,0 L492.007633,0 C503.049112,0 512,8.95435956 512,19.9923669 L512,492.007633 C512,503.049112 503.04564,512 492.007633,512 L19.9923669,512 C8.95088756,512 0,503.04564 0,492.007633 L0,19.9923669 Z" id="Rectangle-2" sketch:type="MSShapeGroup"></path>
        </g>
    </g>
</svg>